<svg width="128" height="128" viewBox="0 0 128 128" xmlns="http://www.w3.org/2000/svg">
  <!-- Canonical design reference for the default Hearthvale player avatar
       ("cozy_default" + round_bob + starter_overalls). The in-game version is
       built procedurally by systems/character/character_visual_builder.gd;
       this SVG is the style spec, not a wired asset. -->
  <ellipse cx="64" cy="116" rx="26" ry="7" fill="#3a2c20" opacity="0.2"/>
  <!-- feet -->
  <ellipse cx="52" cy="112" rx="9" ry="6" fill="#5f8049"/>
  <ellipse cx="76" cy="112" rx="9" ry="6" fill="#5f8049"/>
  <!-- hair back -->
  <ellipse cx="64" cy="48" rx="31" ry="29" fill="#7a4f33"/>
  <!-- body: cream shirt + overalls -->
  <ellipse cx="64" cy="92" rx="24" ry="22" fill="#f2e4c8"/>
  <path d="M48 86 L80 86 L86 112 L64 118 L42 112 Z" fill="#7da964"/>
  <path d="M48 86 L54 86 L48 73 L42 75 Z" fill="#7da964"/>
  <path d="M74 86 L80 86 L86 75 L80 73 Z" fill="#7da964"/>
  <circle cx="55" cy="90" r="3" fill="#5f8049"/>
  <circle cx="73" cy="90" r="3" fill="#5f8049"/>
  <!-- hands -->
  <ellipse cx="40" cy="94" rx="7" ry="8" fill="#f2c9a8"/>
  <ellipse cx="88" cy="94" rx="7" ry="8" fill="#f2c9a8"/>
  <!-- head -->
  <ellipse cx="64" cy="52" rx="28" ry="26" fill="#f2c9a8"/>
  <!-- fringe -->
  <path d="M36 44 C36 30 48 22 64 22 C80 22 92 30 92 44 C84 38 76 36 64 36 C52 36 44 38 36 44 Z" fill="#8a5a3a"/>
  <!-- face -->
  <ellipse cx="54" cy="52" rx="4.5" ry="5.5" fill="#3e2c1e"/>
  <ellipse cx="74" cy="52" rx="4.5" ry="5.5" fill="#3e2c1e"/>
  <circle cx="55.5" cy="50" r="1.7" fill="#ffffff"/>
  <circle cx="75.5" cy="50" r="1.7" fill="#ffffff"/>
  <ellipse cx="46" cy="61" rx="5" ry="3.2" fill="#edA4a4" opacity="0.85"/>
  <ellipse cx="82" cy="61" rx="5" ry="3.2" fill="#edA4a4" opacity="0.85"/>
  <path d="M59 64 Q64 68 69 64" fill="none" stroke="#3e2c1e" stroke-width="2.4" stroke-linecap="round"/>
</svg>
